<?xml version="1.0" encoding="utf-8"?>
<!-- Generator: Adobe Illustrator 19.0.0, SVG Export Plug-In . SVG Version: 6.00 Build 0)  -->
<svg version="1.1" xmlns="http://www.w3.org/2000/svg" xmlns:xlink="http://www.w3.org/1999/xlink" x="0px" y="0px" width="1280px"
	 height="800px" viewBox="0 0 1280 800" style="enable-background:new 0 0 1280 800;" xml:space="preserve">
<style type="text/css">
	.st0{fill:#FFFFFF;stroke:#FFFFFF;stroke-miterlimit:10;}
	.st1{fill:none;stroke:#FFFFFF;stroke-width:20;stroke-miterlimit:10;}
	.st2{display:none;}
	.st3{display:inline;fill:none;}
	.st4{display:inline;}
	.st5{opacity:0.83;}
	.st6{font-family:'MyriadPro-Regular';}
	.st7{font-size:300px;}
	.st8{letter-spacing:-4;}
	.st9{letter-spacing:67;}
	.st10{letter-spacing:61;}
	.st11{letter-spacing:4;}
	.st12{letter-spacing:55;}
	.st13{letter-spacing:65;}
	.st14{letter-spacing:8;}
	.st15{letter-spacing:-1;}
	.st16{letter-spacing:29;}
</style>
<g id="Layer_1">
	<g id="XMLID_4_">
		<g id="XMLID_5_">
			<path id="XMLID_6_" class="st0" d="M253.3,222.5c9.1-5.5,20.2-11.5,32.9-16.8c23-9.6,41.6-11.2,56.7-5.7
				c15.3,5.4,27.8,16.9,36.3,36.7c8.6,20,9.3,39,2.6,55.1c-6.7,16.3-23.2,30.5-47.2,40.6c-11.4,4.8-21.2,8.2-29.7,10.7L253.3,222.5z
				 M315.7,324.2c4.4-1,10.3-3.2,16.6-5.9c34.2-14.3,44.7-41,30.5-74.1c-12.2-29-36.6-40.4-70.4-26.3c-8.3,3.5-14.2,6.8-18.1,9.5
				L315.7,324.2z"/>
			<path id="XMLID_9_" class="st0" d="M439.8,325l24.9-92.4l17,4.5l-24.9,92.4L439.8,325z M490.6,211.7c-1.4,5.8-6.8,9.2-13.6,7.5
				c-6-1.6-9-7.3-7.4-13c1.6-5.9,7.3-9.3,13.4-7.7C489.4,200.1,492.2,205.8,490.6,211.7z"/>
			<path id="XMLID_12_" class="st0" d="M640.5,245c-2.1,6.6-4.4,14-7.3,25.3l-13.7,53.8c-5.4,21.3-13,33.2-24.1,39
				c-11.2,6.2-25.1,5.6-36.9,2.6c-11.2-2.8-22.9-8.6-29.2-15.4l7.5-11.8c5.2,5.4,14,11.2,25.6,14.1c17.4,4.3,32.5-1.5,38.4-24.9
				l2.6-10.3l-0.4-0.1c-7.4,7.3-19.2,11.7-33.8,8.1c-23.2-5.8-34.9-29.5-28.4-55.1c8-31.4,33.2-44.1,54.7-38.7
				c16.3,4,23,14.7,25.1,23.4l0.4,0.1l4.3-13.8L640.5,245z M613.5,277.2c0.7-2.9,1.2-5.4,1-7.9c-0.6-10.5-6.9-20.7-19.3-23.7
				c-16.3-4-31.3,6.7-36.8,28.1c-4.6,18.2,0.8,35.6,19.2,40.2c10.5,2.6,21.6-1.5,28-11.4c1.7-2.6,2.9-5.8,3.6-8.7L613.5,277.2z"/>
			<path id="XMLID_15_" class="st0" d="M718.5,206.3c1.3,5.8-2.1,11.3-9,12.5c-6.1,1.1-11.3-2.7-12.4-8.5c-1.2-6,2.5-11.5,8.7-12.7
				C712.4,196.4,717.4,200.3,718.5,206.3z M722.4,330.2l-18-93.9l17.3-3.2l18,93.9L722.4,330.2z"/>
			<path id="XMLID_31_" class="st0" d="M822.6,208.5l-5.8,26.8l24.6,5.2l-2.8,12.9l-24.6-5.2l-11,50.4c-2.5,11.6-0.6,18.9,8.9,20.9
				c4.5,1,7.9,1.1,10.2,1l-2,12.9c-3.6,0.6-9.1,0.5-15.7-0.9c-8-1.7-13.9-5.6-17-11.1c-3.8-6.1-3.7-14.7-1.3-25.7l11.1-51l-14.6-3.1
				l2.8-12.9l14.6,3.1l4.9-22.4L822.6,208.5z"/>
			<path id="XMLID_35_" class="st0" d="M934.8,332.3l1.8-12l-0.6-0.2c-7.2,5.9-18.9,9.7-32.3,6.2c-18.9-5-25-20.7-21.4-34.1
				c6-22.3,29.4-29.2,65.4-19.5l0.5-1.9c2.1-7.6,3.6-21.9-15.4-27c-8.7-2.3-18.5-2-26.2,0.5l-0.9-12.1c9.1-2.9,21.1-3.2,32.9-0.1
				c28.5,7.5,30.3,28.6,25.3,47.2l-9.3,34.5c-2.2,8-3.9,15.9-4.4,22.5L934.8,332.3z M945,284.6c-18.4-5.3-40.3-7.6-45.1,10.4
				c-2.9,10.9,3,18,11.7,20.3c12.2,3.2,21.9-2.4,26.7-9.5c1-1.6,1.9-3.4,2.4-5.1L945,284.6z"/>
			<path id="XMLID_38_" class="st0" d="M1028.1,189.5l17.6,0.5l-4.3,140.2l-17.6-0.5L1028.1,189.5z"/>
			<path id="XMLID_40_" class="st0" d="M459.3,452.1c6.6-4.1,17.4-9.3,28.8-13.5c16.3-6,27.8-7,38-3.6c8.4,2.4,15.1,8.4,18.7,18.2
				c4.5,12,0.4,25.5-11.1,35.2l0.1,0.4c13.1-1.4,30.8,3.3,37.7,21.8c4,10.7,2.7,20.5-1.3,28.9c-5.8,11.2-18.7,20.1-39.3,27.6
				c-11.2,4.1-20.1,6.5-25.8,7.8L459.3,452.1z M494.7,497.3l14.8-5.4c17.2-6.3,24-18.9,19.5-30.9c-5.5-14.6-18.8-16.3-35.3-10.2
				c-7.5,2.7-11.6,4.9-14,6.4L494.7,497.3z M517,557.2c3.4-0.6,8.1-2.1,13.9-4.3c16.9-6.2,30.1-18,23.3-36.1
				c-6.4-17-23.8-18.7-41.6-12.2l-13.5,4.9L517,557.2z"/>
			<path id="XMLID_44_" class="st0" d="M668,568.7l0-12.1l-0.6-0.1c-6.2,6.9-17.3,12.4-31,10.8c-19.4-2.2-27.8-16.8-26.2-30.6
				c2.6-23,24.7-33.2,61.8-28.8l0.2-2c0.9-7.8,0.3-22.2-19.3-24.4c-8.9-1-18.6,0.7-25.8,4.3l-2.7-11.8c8.5-4.2,20.4-6.3,32.5-4.9
				c29.4,3.3,34.2,23.9,32,43l-4.1,35.5c-0.9,8.2-1.5,16.3-1,22.9L668,568.7z M671,519.9c-19-2.5-41-1.6-43.1,16.8
				c-1.3,11.2,5.6,17.3,14.6,18.3c12.5,1.4,21.3-5.6,25-13.3c0.8-1.7,1.4-3.6,1.6-5.4L671,519.9z"/>
			<path id="XMLID_47_" class="st0" d="M763.5,465.8l7.4,59.8c0.7,6.7,1.2,14.5,1.5,20.4l0.4,0.1c3.1-5.2,6.7-11.8,10.7-18
				l31.7-50.2l18.1,4.2l-41.5,60.3c-19.9,29-32.2,43.4-46.2,50.7c-10.1,5.3-19.1,6.3-23.6,6l-0.9-15.2c4.6-0.3,10.9-1.7,16.9-4.8
				c5.5-2.6,12.9-7.7,18.9-15.5c1.2-1.5,2.1-2.8,2.3-3.7c0.2-1,0.2-2.4-0.1-4.7l-14.2-93.9L763.5,465.8z"/>
		</g>
	</g>
	<line id="XMLID_1_" class="st1" x1="9.4" y1="110.4" x2="1289.4" y2="110.4"/>
	<line id="XMLID_2_" class="st1" x1="0" y1="687.6" x2="1280" y2="687.6"/>
</g>
<g id="Letter" class="st2">
	<rect id="XMLID_33_" y="136.2" class="st3" width="1280" height="679.5"/>
	<text id="XMLID_32_" transform="matrix(0.9209 -0.3897 0.3897 0.9209 113.7969 378.5151)" class="st4"><tspan x="0" y="0" class="st5 st6 st7 st8">D</tspan><tspan x="202.9" y="39.7" class="st5 st6 st7 st9" rotate="37.9">i</tspan><tspan x="340.5" y="86.1" class="st5 st6 st7 st10" rotate="37.1">g</tspan><tspan x="586.9" y="221.4" class="st5 st6 st7 st11" rotate="12.2">i</tspan><tspan x="667.7" y="236.4" class="st5 st6 st7 st12" rotate="35.1">t</tspan><tspan x="820.2" y="290.6" class="st5 st6 st7 st13" rotate="37.9">a</tspan><tspan x="1005.8" y="392.6" class="st5 st6 st7 st14" rotate="24.7">l</tspan><tspan x="1078.1" y="424.5" class="st5 st6 st7" rotate="22.9"> </tspan><tspan x="139.9" y="440.7" class="st5 st6 st7 st15" rotate="2.7">B</tspan><tspan x="302.8" y="477.5" class="st5 st6 st7 st16" rotate="29.4">a</tspan><tspan x="473.5" y="538.2" class="st5 st6 st7 st13" rotate="36.3">y</tspan></text>
</g>
</svg>
