<?xml version="1.0" encoding="utf-8"?>
<!-- Generator: Adobe Illustrator 19.0.0, SVG Export Plug-In . SVG Version: 6.00 Build 0)  -->
<svg version="1.1" id="Layer_1" xmlns="http://www.w3.org/2000/svg" xmlns:xlink="http://www.w3.org/1999/xlink" x="0px" y="0px"
	 width="1280px" height="800px" viewBox="0 0 1280 800" style="enable-background:new 0 0 1280 800;" xml:space="preserve">
<style type="text/css">
	.st0{fill:#FFFFFF;stroke:#FFFFFF;stroke-miterlimit:10;}
	.st1{fill:none;stroke:#FFFFFF;stroke-width:20;stroke-miterlimit:10;}
	.st2{fill:none;}
	.st3{display:none;}
	.st4{display:inline;fill:none;}
	.st5{display:inline;opacity:0.83;enable-background:new    ;}
	.st6{font-family:'MyriadPro-Regular';}
	.st7{font-size:299.9884px;}
	.st8{letter-spacing:-3;}
	.st9{letter-spacing:66;}
	.st10{letter-spacing:60;}
	.st11{letter-spacing:3;}
	.st12{letter-spacing:54;}
	.st13{letter-spacing:64;}
	.st14{letter-spacing:7;}
	.st15{letter-spacing:28;}
</style>
<g id="Layer_1_1_">
	<g id="XMLID_4_">
		<g id="XMLID_5_">
			<path id="XMLID_6_" class="st0" d="M248.6,223.5c9.1-5.5,20.2-11.5,32.9-16.8c23-9.6,41.6-11.2,56.7-5.7
				c15.3,5.4,27.8,16.9,36.3,36.7c8.6,20,9.3,39,2.6,55.1c-6.7,16.3-23.2,30.5-47.2,40.6c-11.4,4.8-21.2,8.2-29.7,10.7L248.6,223.5z
				 M311,325.2c4.4-1,10.3-3.2,16.6-5.9c34.2-14.3,44.7-41,30.5-74.1c-12.2-29-36.6-40.4-70.4-26.3c-8.3,3.5-14.2,6.8-18.1,9.5
				L311,325.2z"/>
			<path id="XMLID_9_" class="st0" d="M435.1,326l24.9-92.4l17,4.5l-24.9,92.4L435.1,326z M485.9,212.7c-1.4,5.8-6.8,9.2-13.6,7.5
				c-6-1.6-9-7.3-7.4-13c1.6-5.9,7.3-9.3,13.4-7.7C484.7,201.1,487.5,206.8,485.9,212.7z"/>
			<path id="XMLID_12_" class="st0" d="M635.8,246c-2.1,6.6-4.4,14-7.3,25.3l-13.7,53.8c-5.4,21.3-13,33.2-24.1,39
				c-11.2,6.2-25.1,5.6-36.9,2.6c-11.2-2.8-22.9-8.6-29.2-15.4l7.5-11.8c5.2,5.4,14,11.2,25.6,14.1c17.4,4.3,32.5-1.5,38.4-24.9
				l2.6-10.3l-0.4-0.1c-7.4,7.3-19.2,11.7-33.8,8.1c-23.2-5.8-34.9-29.5-28.4-55.1c8-31.4,33.2-44.1,54.7-38.7
				c16.3,4,23,14.7,25.1,23.4l0.4,0.1l4.3-13.8L635.8,246z M608.8,278.2c0.7-2.9,1.2-5.4,1-7.9c-0.6-10.5-6.9-20.7-19.3-23.7
				c-16.3-4-31.3,6.7-36.8,28.1c-4.6,18.2,0.8,35.6,19.2,40.2c10.5,2.6,21.6-1.5,28-11.4c1.7-2.6,2.9-5.8,3.6-8.7L608.8,278.2z"/>
			<path id="XMLID_15_" class="st0" d="M713.8,207.3c1.3,5.8-2.1,11.3-9,12.5c-6.1,1.1-11.3-2.7-12.4-8.5c-1.2-6,2.5-11.5,8.7-12.7
				C707.7,197.4,712.7,201.3,713.8,207.3z M717.7,331.2l-18-93.9l17.3-3.2l18,93.9L717.7,331.2z"/>
			<path id="XMLID_31_" class="st0" d="M817.9,209.5l-5.8,26.8l24.6,5.2l-2.8,12.9l-24.6-5.2l-11,50.4c-2.5,11.6-0.6,18.9,8.9,20.9
				c4.5,1,7.9,1.1,10.2,1l-2,12.9c-3.6,0.6-9.1,0.5-15.7-0.9c-8-1.7-13.9-5.6-17-11.1c-3.8-6.1-3.7-14.7-1.3-25.7l11.1-51l-14.6-3.1
				l2.8-12.9l14.6,3.1l4.9-22.4L817.9,209.5z"/>
			<path id="XMLID_35_" class="st0" d="M930.1,333.3l1.8-12l-0.6-0.2c-7.2,5.9-18.9,9.7-32.3,6.2c-18.9-5-25-20.7-21.4-34.1
				c6-22.3,29.4-29.2,65.4-19.5l0.5-1.9c2.1-7.6,3.6-21.9-15.4-27c-8.7-2.3-18.5-2-26.2,0.5l-0.9-12.1c9.1-2.9,21.1-3.2,32.9-0.1
				c28.5,7.5,30.3,28.6,25.3,47.2l-9.3,34.5c-2.2,8-3.9,15.9-4.4,22.5L930.1,333.3z M940.3,285.6c-18.4-5.3-40.3-7.6-45.1,10.4
				c-2.9,10.9,3,18,11.7,20.3c12.2,3.2,21.9-2.4,26.7-9.5c1-1.6,1.9-3.4,2.4-5.1L940.3,285.6z"/>
			<path id="XMLID_38_" class="st0" d="M1023.4,190.5l17.6,0.5l-4.3,140.2l-17.6-0.5L1023.4,190.5z"/>
			<path id="XMLID_40_" class="st0" d="M454.6,453.1c6.6-4.1,17.4-9.3,28.8-13.5c16.3-6,27.8-7,38-3.6c8.4,2.4,15.1,8.4,18.7,18.2
				c4.5,12,0.4,25.5-11.1,35.2l0.1,0.4c13.1-1.4,30.8,3.3,37.7,21.8c4,10.7,2.7,20.5-1.3,28.9c-5.8,11.2-18.7,20.1-39.3,27.6
				c-11.2,4.1-20.1,6.5-25.8,7.8L454.6,453.1z M490,498.3l14.8-5.4c17.2-6.3,24-18.9,19.5-30.9c-5.5-14.6-18.8-16.3-35.3-10.2
				c-7.5,2.7-11.6,4.9-14,6.4L490,498.3z M512.3,558.2c3.4-0.6,8.1-2.1,13.9-4.3c16.9-6.2,30.1-18,23.3-36.1
				c-6.4-17-23.8-18.7-41.6-12.2l-13.5,4.9L512.3,558.2z"/>
			<path id="XMLID_44_" class="st0" d="M663.3,569.7v-12.1l-0.6-0.1c-6.2,6.9-17.3,12.4-31,10.8c-19.4-2.2-27.8-16.8-26.2-30.6
				c2.6-23,24.7-33.2,61.8-28.8l0.2-2c0.9-7.8,0.3-22.2-19.3-24.4c-8.9-1-18.6,0.7-25.8,4.3l-2.7-11.8c8.5-4.2,20.4-6.3,32.5-4.9
				c29.4,3.3,34.2,23.9,32,43l-4.1,35.5c-0.9,8.2-1.5,16.3-1,22.9L663.3,569.7z M666.3,520.9c-19-2.5-41-1.6-43.1,16.8
				c-1.3,11.2,5.6,17.3,14.6,18.3c12.5,1.4,21.3-5.6,25-13.3c0.8-1.7,1.4-3.6,1.6-5.4L666.3,520.9z"/>
			<path id="XMLID_47_" class="st0" d="M758.8,466.8l7.4,59.8c0.7,6.7,1.2,14.5,1.5,20.4l0.4,0.1c3.1-5.2,6.7-11.8,10.7-18
				l31.7-50.2l18.1,4.2l-41.5,60.3c-19.9,29-32.2,43.4-46.2,50.7c-10.1,5.3-19.1,6.3-23.6,6l-0.9-15.2c4.6-0.3,10.9-1.7,16.9-4.8
				c5.5-2.6,12.9-7.7,18.9-15.5c1.2-1.5,2.1-2.8,2.3-3.7c0.2-1,0.2-2.4-0.1-4.7l-14.2-93.9L758.8,466.8z"/>
		</g>
	</g>
	<line id="XMLID_1_" class="st1" x1="4.7" y1="111.4" x2="1284.7" y2="111.4"/>
	<text class="st2">	<textPath  xlink:href="#SVGID_x5F_1_x5F_" startOffset="0%">
	</textPath>
</text>
</g>
<g id="Letter" class="st3">
	<rect id="XMLID_33_" y="136.2" class="st4" width="1280" height="679.5"/>
	<text transform="matrix(0.9209 -0.3897 0.3897 0.9209 113.7974 378.5155)" class="st5 st6 st7 st8">D</text>
	<text transform="matrix(0.9209 -0.3897 0.3897 0.9209 316.1188 336.005)" class="st5 st6 st7 st9">i</text>
	<text transform="matrix(0.9209 -0.3897 0.3897 0.9209 460.9171 325.1121)" class="st5 st6 st7 st10">g</text>
	<text transform="matrix(0.9209 -0.3897 0.3897 0.9209 740.5531 353.688)" class="st5 st6 st7 st11">i</text>
	<text transform="matrix(0.9209 -0.3897 0.3897 0.9209 820.8071 336.0134)" class="st5 st6 st7 st12">t</text>
	<text transform="matrix(0.9209 -0.3897 0.3897 0.9209 982.3663 326.4974)" class="st5 st6 st7 st13">a</text>
	<text transform="matrix(0.9209 -0.3897 0.3897 0.9209 1193.0347 348.1009)" class="st5 st6 st7 st14">l</text>
	<text transform="matrix(0.9209 -0.3897 0.3897 0.9209 1272.0472 349.3018)" class="st5 st6 st7"> </text>
	<text transform="matrix(0.9209 -0.3897 0.3897 0.9209 414.3719 729.8367)" class="st5 st6 st7">B</text>
	<text transform="matrix(0.9209 -0.3897 0.3897 0.9209 578.7273 700.2441)" class="st5 st6 st7 st15">a</text>
	<text transform="matrix(0.9209 -0.3897 0.3897 0.9209 759.5798 689.6215)" class="st5 st6 st7 st13">y</text>
</g>
<g>
	<path class="st2" d="M943.9,562.5c0.5,0.2,1.1,0.4,1.6,0.7s1.1,0.5,1.7,0.7s1.2,0.4,1.9,0.6s1.3,0.2,2.1,0.2c0.9,0,1.7-0.1,2.6-0.3
		s1.7-0.5,2.6-0.9s1.6-0.9,2.4-1.5s1.5-1.2,2.1-2c0.7-0.8,1.3-1.5,1.8-2.2s0.8-1.2,1.1-1.7s0.5-0.9,0.6-1.3s0.2-0.7,0.2-0.9
		c0-0.4-0.1-0.7-0.4-1s-0.6-0.5-1.1-0.7s-0.9-0.3-1.5-0.4s-1.1-0.1-1.8-0.1c-0.4,0-0.8,0-1.3,0s-1,0-1.5,0.1s-1,0-1.5,0.1
		s-0.9,0-1.2,0c-0.5,0-1.1-0.1-1.6-0.2s-1.1-0.3-1.6-0.6s-1-0.6-1.5-1.1s-0.8-1-1.1-1.7c-0.1-0.2-0.2-0.5-0.3-0.8s-0.1-0.6-0.1-1
		c0-0.4,0-0.7,0.1-1.1s0.1-0.7,0.2-1c0.2-0.8,0.6-1.6,1.1-2.4s1.1-1.6,1.8-2.4s1.5-1.5,2.3-2.2s1.7-1.4,2.6-2s1.8-1.2,2.6-1.7
		s1.6-0.9,2.4-1.3c1-0.5,2.1-0.9,3.2-1.1s2.1-0.3,3.2-0.3c0.6,0,1.2,0.1,1.8,0.2s1.1,0.4,1.5,0.7s0.8,0.7,1,1.2s0.4,1,0.4,1.6
		c0,0.3,0,0.6-0.1,0.9s-0.2,0.4-0.3,0.6s-0.3,0.3-0.4,0.3s-0.3,0.1-0.5,0.1c-0.4,0-0.8,0-1.2-0.1s-0.7-0.2-1-0.3s-0.7-0.2-1-0.3
		s-0.7-0.2-1.1-0.2c-1.2,0-2.3,0.2-3.5,0.7s-2.4,1-3.5,1.8s-2.2,1.5-3.2,2.4s-1.9,1.7-2.7,2.6c-0.4,0.4-0.7,0.9-0.9,1.3
		s-0.3,0.9-0.3,1.2c0,0.6,0.3,1,0.8,1.4s1.1,0.5,1.8,0.5c0.4,0,0.9,0,1.4,0s1.1,0,1.6-0.1s1.1,0,1.6-0.1s1,0,1.4,0
		c1,0,1.9,0.1,2.8,0.4s1.7,0.7,2.4,1.2s1.2,1.2,1.7,2s0.6,1.7,0.6,2.7c0,0.6-0.1,1.3-0.3,1.9s-0.4,1.3-0.8,1.9s-0.7,1.3-1.1,1.9
		s-0.9,1.3-1.3,1.9c-0.8,1.1-1.8,2.1-2.8,3.1s-2.1,1.8-3.3,2.5s-2.4,1.3-3.7,1.7s-2.6,0.6-4,0.6c-0.6,0-1.2-0.1-1.8-0.2
		s-1.2-0.3-1.9-0.5s-1.2-0.5-1.7-0.8s-1-0.7-1.4-1.1s-0.7-0.9-1-1.3s-0.4-1-0.4-1.6c0-0.3,0-0.6,0.1-0.8S943.5,562.5,943.9,562.5z"
		/>
	<path class="st2" d="M973.1,558.7c0.3-1.2,0.7-2.5,1.3-3.8s1.3-2.6,2.1-3.8s1.8-2.4,2.8-3.4s2.2-1.9,3.5-2.5
		c0.4-0.2,0.9-0.4,1.3-0.5s1-0.2,1.5-0.2c0.5,0,1,0,1.4,0.1s0.8,0.3,1.1,0.5s0.6,0.5,0.8,0.8s0.3,0.8,0.3,1.3c0,0.4-0.1,0.8-0.2,1.1
		s-0.3,0.7-0.5,1s-0.5,0.6-0.8,0.7s-0.7,0.3-1.1,0.3c-0.3,0-0.7-0.1-0.9-0.2s-0.6-0.3-0.8-0.4c-0.1-0.1-0.3-0.2-0.4-0.2
		s-0.3-0.1-0.4-0.2c-0.6,0.3-1.2,0.7-1.8,1.1s-1.1,1-1.5,1.5s-0.9,1.2-1.3,1.8s-0.8,1.3-1.1,1.9s-0.6,1.3-0.8,1.9s-0.4,1.2-0.6,1.7
		c-0.1,0.4-0.2,0.8-0.3,1.3s-0.1,0.9-0.1,1.4c0,0.3,0,0.6,0.1,0.9s0.2,0.5,0.3,0.8s0.3,0.4,0.6,0.5s0.5,0.2,0.9,0.2
		c0.5,0,1.1-0.1,1.6-0.2s1.1-0.3,1.6-0.5s1-0.5,1.5-0.8s1-0.6,1.4-0.9c0.3-0.2,0.6-0.4,0.9-0.6s0.6-0.4,0.8-0.5s0.5-0.3,0.7-0.4
		s0.4-0.2,0.6-0.2c0.2,0,0.5,0.1,0.7,0.2s0.3,0.3,0.3,0.6c0,0.2,0,0.4-0.1,0.7c-0.2,0.6-0.5,1.2-0.9,1.6s-0.8,0.9-1.3,1.3
		s-1,0.7-1.5,1s-1,0.6-1.6,0.8c-1,0.5-1.9,0.9-2.9,1.2s-1.8,0.4-2.5,0.4c-0.2,0-0.5,0-0.8-0.1s-0.6-0.1-0.8-0.2
		c-1.3-0.5-2.2-1.3-2.8-2.2s-0.9-2-0.9-3.3c0-0.5,0-1.1,0.1-1.7S972.9,559.4,973.1,558.7z"/>
	<path class="st2" d="M993.9,565.5c0.2-1.1,0.4-2.3,0.7-3.6s0.5-2.6,0.8-4s0.6-2.7,0.8-4s0.5-2.5,0.7-3.6c0-0.2,0-0.3,0-0.4
		s0-0.2,0-0.4c0-0.5,0-1,0.1-1.5s0.1-0.9,0.3-1.3c0.2-0.6,0.4-1,0.6-1.2s0.6-0.3,1-0.3c0.5,0,0.8,0.1,1.1,0.3s0.5,0.4,0.6,0.7
		s0.3,0.6,0.3,1s0.1,0.8,0.1,1.2c0,0.2,0,0.5,0,0.7s0,0.5,0,0.6c0.4-0.5,0.9-0.9,1.4-1.4s1-0.9,1.6-1.3s1.1-0.7,1.8-0.9
		s1.3-0.4,1.9-0.4c0.3,0,0.5,0,0.8,0.1s0.5,0.1,0.8,0.2c0.3,0.1,0.6,0.2,1,0.3s0.7,0.3,1,0.6c0.5,0.4,0.9,0.9,1.3,1.5
		s0.5,1.2,0.5,1.8c0,0.2,0,0.5-0.1,0.8s-0.2,0.5-0.4,0.8s-0.4,0.4-0.6,0.6s-0.5,0.2-0.7,0.2s-0.6-0.1-1-0.2s-0.7-0.3-0.9-0.5
		c-0.1-0.1-0.2-0.2-0.3-0.4s-0.2-0.3-0.3-0.5s-0.2-0.3-0.3-0.5s-0.2-0.2-0.2-0.3c-0.1,0-0.2,0-0.3,0s-0.2,0-0.3,0
		c-0.8,0-1.6,0.2-2.3,0.6s-1.4,0.9-2,1.5s-1.2,1.2-1.7,1.9s-1,1.3-1.4,1.8c-0.3,1.3-0.7,2.6-1,4s-0.8,2.9-1.1,4.5v0.6
		c0,0.5,0,0.9,0,1.4s-0.1,0.9-0.3,1.3c-0.2,0.2-0.4,0.4-0.7,0.6s-0.7,0.2-1.1,0.2c-0.7,0-1.1-0.2-1.5-0.6s-0.5-0.9-0.5-1.5
		C993.8,566,993.8,565.7,993.9,565.5z"/>
	<path class="st2" d="M1014.1,558.9c0.2-1,0.6-2,1.1-3s1.1-2.2,1.9-3.2s1.8-2.2,2.9-3.2s2.4-2,3.9-2.9c0.2-0.1,0.6-0.3,1.1-0.5
		s1-0.3,1.5-0.3c0.6-0.7,1.4-1,2.5-1c1.2,0,2.2,0.3,3.1,0.9s1.5,1.5,2.1,2.5c0.2,0.3,0.3,0.7,0.5,1s0.3,0.7,0.4,1s0.2,0.8,0.2,1.2
		s0.1,0.9,0.1,1.4c0,1.2-0.2,2.5-0.6,3.8s-0.9,2.5-1.7,3.8s-1.6,2.4-2.6,3.5s-2.2,2.1-3.4,3c-0.8,0.6-1.8,1.1-2.8,1.4
		s-2.2,0.5-3.4,0.5c-1.2,0-2.2-0.2-3.1-0.5s-1.6-0.8-2.2-1.4s-1-1.3-1.3-2.1s-0.4-1.8-0.4-2.8C1013.7,561.1,1013.8,560,1014.1,558.9
		z M1018,559.2c-0.1,0.4-0.2,0.7-0.2,1s-0.1,0.6-0.1,0.9c0,0.5,0.1,1,0.2,1.4s0.3,0.8,0.6,1.1s0.7,0.6,1.1,0.8s1,0.3,1.6,0.3
		c1.2,0,2.3-0.3,3.3-0.9s1.9-1.4,2.7-2.3s1.5-1.9,2-2.9s0.9-2,1.1-2.9c0.1-0.5,0.3-1.1,0.4-1.5s0.2-0.9,0.2-1.3s-0.1-0.8-0.2-1.1
		s-0.3-0.7-0.6-1.2c-0.1-0.3-0.3-0.5-0.4-0.8s-0.3-0.6-0.4-0.9c-0.1,0.2-0.3,0.4-0.4,0.6s-0.4,0.3-0.6,0.4s-0.7,0.3-1.1,0.4
		s-1.1,0.2-1.9,0.3c-0.5,0.2-1,0.4-1.6,0.8s-1.1,0.8-1.6,1.3s-1,1-1.5,1.6s-0.9,1.1-1.2,1.7s-0.7,1.2-1,1.7S1018.1,558.7,1018,559.2
		z"/>
	<path class="st2" d="M1046.4,535.7c0.1-0.6,0.2-1.2,0.4-1.7s0.4-1,0.7-1.3s0.7-0.5,1.1-0.5c0.3,0,0.5,0,0.8,0.1s0.6,0.2,0.9,0.4
		s0.5,0.4,0.7,0.6s0.3,0.5,0.3,0.8c0,0.1,0,0.3-0.1,0.4s-0.1,0.3-0.1,0.5l-5.9,23.5c-0.2,0.9-0.4,1.8-0.6,2.7s-0.3,1.6-0.4,2.1v0.6
		c0,0.5,0,1-0.1,1.5s-0.2,1.1-0.4,1.5s-0.4,0.9-0.7,1.2s-0.7,0.5-1.2,0.5c-0.4,0-0.8-0.1-1.1-0.3s-0.6-0.4-0.8-0.7s-0.4-0.6-0.4-0.9
		s-0.1-0.6-0.1-0.9c0-0.3,0-0.6,0.1-0.9s0.1-0.8,0.2-1.1s0.1-0.8,0.2-1.2s0.2-0.7,0.2-1l6-24C1046.3,537,1046.3,536.4,1046.4,535.7z
		"/>
	<path class="st2" d="M1058.5,535.7c0.1-0.6,0.2-1.2,0.4-1.7s0.4-1,0.7-1.3s0.7-0.5,1.1-0.5c0.3,0,0.5,0,0.8,0.1s0.6,0.2,0.9,0.4
		s0.5,0.4,0.7,0.6s0.3,0.5,0.3,0.8c0,0.1,0,0.3-0.1,0.4s-0.1,0.3-0.1,0.5l-5.9,23.5c-0.2,0.9-0.4,1.8-0.6,2.7s-0.3,1.6-0.4,2.1v0.6
		c0,0.5,0,1-0.1,1.5s-0.2,1.1-0.4,1.5s-0.4,0.9-0.7,1.2s-0.7,0.5-1.2,0.5c-0.4,0-0.8-0.1-1.1-0.3s-0.6-0.4-0.8-0.7s-0.4-0.6-0.4-0.9
		s-0.1-0.6-0.1-0.9c0-0.3,0-0.6,0.1-0.9s0.1-0.8,0.2-1.1s0.1-0.8,0.2-1.2s0.2-0.7,0.2-1l6-24C1058.3,537,1058.4,536.4,1058.5,535.7z
		"/>
	<path class="st2" d="M1085.7,564.4c0.7-0.5,1.4-0.8,2.2-1s1.5-0.2,2.4-0.3l5.9-23.7c-0.1,0-0.2,0-0.5,0s-0.6,0-1-0.1
		s-0.7-0.1-1-0.2s-0.6-0.2-0.8-0.4c-0.1-0.1-0.2-0.3-0.3-0.4s-0.2-0.4-0.3-0.6s-0.2-0.4-0.3-0.6s-0.1-0.4-0.1-0.7
		c0-0.4,0.2-0.7,0.5-0.9s0.7-0.4,1.1-0.6s0.9-0.3,1.4-0.3s1-0.1,1.4-0.1c2,0,3.8,0.1,5.5,0.2s3.3,0.4,4.7,0.8s2.8,0.9,4.1,1.7
		s2.5,1.7,3.7,2.9c0.4,0.5,0.9,1,1.3,1.5s0.8,1.2,1.1,1.8s0.6,1.4,0.7,2.1s0.3,1.6,0.3,2.4c0,0.5,0,0.9-0.1,1.4s-0.1,0.9-0.2,1.3
		c-0.5,1.8-1.1,3.4-1.9,4.8s-1.8,2.6-2.9,3.7s-2.3,2-3.6,2.8s-2.6,1.5-4,2.1s-2.8,1.1-4.2,1.5s-2.8,0.8-4.2,1.2h0
		c-0.6,0.2-1.3,0.4-2,0.5s-1.4,0.3-2.1,0.4s-1.4,0.2-2.1,0.2s-1.4,0.1-2,0.1c-0.7,0-1.3,0-1.7-0.1s-0.8-0.2-1.1-0.4
		s-0.5-0.3-0.6-0.5s-0.2-0.4-0.2-0.6c0-0.3,0.1-0.6,0.3-1S1085.3,564.7,1085.7,564.4z M1096.1,557.6c-0.2,0.8-0.4,1.6-0.6,2.5
		s-0.4,1.7-0.6,2.5l0.5-0.1c0.3-0.1,0.8-0.2,1.4-0.4s1.3-0.4,2-0.6s1.6-0.5,2.4-0.8s1.7-0.7,2.7-1.2s1.9-1,2.8-1.6s1.8-1.2,2.6-1.9
		s1.6-1.4,2.2-2.2s1.2-1.6,1.5-2.5s0.6-1.8,0.6-2.7c0-1-0.2-1.9-0.6-2.7s-0.9-1.6-1.5-2.4s-1.4-1.4-2.2-1.9s-1.7-1.1-2.6-1.5
		s-1.8-0.7-2.8-0.9s-1.8-0.3-2.6-0.3c-1.2,3-2.2,6.1-3,9.2S1096.8,554.4,1096.1,557.6z"/>
	<path class="st2" d="M1120.5,558.9c0.2-1,0.6-2,1.1-3s1.1-2.2,1.9-3.2s1.8-2.2,2.9-3.2s2.4-2,3.9-2.9c0.2-0.1,0.6-0.3,1.1-0.5
		s1-0.3,1.5-0.3c0.6-0.7,1.4-1,2.5-1c1.2,0,2.2,0.3,3.1,0.9s1.5,1.5,2.1,2.5c0.2,0.3,0.3,0.7,0.5,1s0.3,0.7,0.4,1s0.2,0.8,0.2,1.2
		s0.1,0.9,0.1,1.4c0,1.2-0.2,2.5-0.6,3.8s-0.9,2.5-1.7,3.8s-1.6,2.4-2.6,3.5s-2.2,2.1-3.4,3c-0.8,0.6-1.8,1.1-2.8,1.4
		s-2.2,0.5-3.4,0.5c-1.2,0-2.2-0.2-3.1-0.5s-1.6-0.8-2.2-1.4s-1-1.3-1.3-2.1s-0.4-1.8-0.4-2.8C1120,561.1,1120.2,560,1120.5,558.9z
		 M1124.3,559.2c-0.1,0.4-0.2,0.7-0.2,1s-0.1,0.6-0.1,0.9c0,0.5,0.1,1,0.2,1.4s0.3,0.8,0.6,1.1s0.7,0.6,1.1,0.8s1,0.3,1.6,0.3
		c1.2,0,2.3-0.3,3.3-0.9s1.9-1.4,2.7-2.3s1.5-1.9,2-2.9s0.9-2,1.1-2.9c0.1-0.5,0.3-1.1,0.4-1.5s0.2-0.9,0.2-1.3s-0.1-0.8-0.2-1.1
		s-0.3-0.7-0.6-1.2c-0.1-0.3-0.3-0.5-0.4-0.8s-0.3-0.6-0.4-0.9c-0.1,0.2-0.3,0.4-0.4,0.6s-0.4,0.3-0.6,0.4s-0.7,0.3-1.1,0.4
		s-1.1,0.2-1.9,0.3c-0.5,0.2-1,0.4-1.6,0.8s-1.1,0.8-1.6,1.3s-1,1-1.5,1.6s-0.9,1.1-1.2,1.7s-0.7,1.2-1,1.7
		S1124.5,558.7,1124.3,559.2z"/>
	<path class="st2" d="M1148.6,546.9c0.3-0.6,0.6-1,1-1.2s0.8-0.3,1.2-0.3c0.5,0,0.8,0.1,1.1,0.2s0.6,0.3,0.8,0.6s0.3,0.5,0.4,0.8
		s0.1,0.6,0.1,1c0,0.1,0,0.2,0,0.3s0,0.2,0,0.3c0,0.1-0.1,0.4-0.1,0.8s-0.1,0.8-0.2,1.3s-0.2,1-0.3,1.6s-0.2,1.1-0.3,1.6
		s-0.2,0.9-0.2,1.3s-0.1,0.6-0.2,0.8c0,0.2-0.1,0.4-0.1,0.7s-0.1,0.6-0.1,1s-0.1,0.8-0.1,1.2s0,0.9,0,1.3c0,0.4,0,0.8,0,1.2
		s0.1,0.7,0.2,1s0.2,0.5,0.3,0.7s0.3,0.3,0.5,0.3c0.1,0,0.3-0.1,0.6-0.3s0.6-0.5,0.9-0.8s0.6-0.6,0.9-1s0.5-0.6,0.7-0.9
		c1-1.3,1.9-2.5,2.8-3.8s1.6-2.6,2.4-3.9c0.3-0.5,0.5-1,0.6-1.6s0.3-1,0.5-1.4s0.5-0.8,0.9-1.1s0.9-0.4,1.7-0.4
		c0.4,0,0.8,0.1,1.2,0.4s0.7,0.6,0.8,1.1c0,0.6-0.1,1.2-0.2,1.8s-0.2,1.2-0.3,1.9s-0.1,1.3-0.2,1.9s-0.1,1.2-0.1,1.8
		c0,0.9,0.1,1.8,0.3,2.6s0.5,1.5,1,2c0.6-0.8,1.2-1.6,1.8-2.6s1.2-2,1.8-3s1.1-2.1,1.7-3.2s1-2.1,1.5-3.1c0-0.1,0.1-0.2,0.1-0.2
		s0-0.1,0-0.2v-0.2c0-0.5,0.1-1,0.4-1.5s0.6-1,1-1.4s0.8-0.8,1.2-1s0.7-0.4,1-0.4c0.7,0,1.2,0.2,1.5,0.5s0.6,0.8,0.6,1.4
		c0,0.2,0,0.4-0.1,0.7s-0.2,0.6-0.3,0.8l-7.9,13.9l-0.6,1.1c-0.3,0.5-0.5,1-0.7,1.4s-0.5,0.9-0.8,1.2s-0.6,0.6-1,0.8
		s-0.8,0.3-1.2,0.3c-0.6,0-1.2-0.2-1.6-0.5s-0.9-0.8-1.2-1.3s-0.6-1-0.9-1.6s-0.4-1.1-0.5-1.6l-0.9-3.8c0,0-0.2,0.2-0.5,0.5
		s-0.6,0.8-1.1,1.3s-0.9,1.1-1.4,1.7s-1,1.2-1.5,1.8s-0.9,1.1-1.3,1.5s-0.7,0.8-0.9,1s-0.4,0.4-0.7,0.6s-0.5,0.4-0.7,0.5
		s-0.5,0.3-0.7,0.4s-0.4,0.1-0.5,0.1c-1,0-1.9-0.2-2.6-0.7s-1.2-1.1-1.6-1.9s-0.7-1.7-0.8-2.6s-0.2-1.9-0.2-2.9c0-0.9,0-1.7,0.1-2.6
		s0.2-1.7,0.3-2.6s0.2-1.7,0.4-2.5s0.2-1.5,0.3-2.2c0-0.1,0-0.3,0-0.4s0-0.3,0-0.5v-0.6c0-0.3,0-0.5,0-0.7S1148.6,547,1148.6,546.9z
		"/>
	<path class="st2" d="M1197.5,548.6c-0.5,0-1.1,0.1-1.8,0.4s-1.3,0.6-1.9,1s-1.4,0.9-2.1,1.5s-1.4,1.1-2.1,1.7
		c-0.3,0.3-0.7,0.6-1,0.8s-0.6,0.4-0.9,0.6c-0.2,0.4-0.4,0.8-0.7,1.4s-0.5,1.2-0.7,1.9s-0.5,1.4-0.7,2.1s-0.4,1.4-0.5,2
		c-0.1,0.3-0.1,0.6-0.2,1s-0.1,0.6-0.2,1s-0.1,0.7-0.2,1.1s-0.2,0.9-0.3,1.4c-0.1,0.3-0.2,0.5-0.4,0.7s-0.4,0.3-0.5,0.4
		s-0.4,0.2-0.5,0.2s-0.3,0-0.4,0c-0.6,0-1.1-0.1-1.5-0.4s-0.6-0.8-0.6-1.6c0-0.2,0-0.4,0-0.7s0.1-0.5,0.1-0.8c0.3-1.5,0.7-2.8,1-4
		s0.6-2.3,1-3.3s0.7-2,1-2.9s0.7-1.8,1-2.7s0.7-1.9,1.1-2.8s0.8-2.1,1.2-3.2c0.1-0.3,0.3-0.5,0.7-0.7s0.8-0.3,1.3-0.3
		c0.6,0,1.1,0.1,1.5,0.4s0.6,0.6,0.6,1.1c0,0,0,0.1,0,0.3s-0.1,0.3-0.1,0.4l-1,2.4c0.7-0.5,1.3-1,2.1-1.5s1.4-1,2.2-1.4
		s1.5-0.8,2.3-1s1.5-0.4,2.2-0.4c1.5,0,2.7,0.4,3.5,1.2s1.3,2.1,1.3,3.7c0,1-0.2,2.1-0.5,3.3s-0.8,2.6-1.3,4s-1.1,2.9-1.6,4.5
		s-1.1,3.1-1.6,4.7c-0.1,0.4-0.3,0.8-0.4,1.1s-0.3,0.5-0.5,0.7s-0.4,0.3-0.7,0.4s-0.6,0.1-1,0.1c-0.6,0-1-0.1-1.3-0.3
		s-0.4-0.6-0.4-1.1c0-0.4,0.1-1,0.2-1.6s0.3-1.3,0.6-2.1s0.5-1.6,0.8-2.4s0.7-1.7,1-2.6c0.3-0.7,0.6-1.4,0.9-2.2s0.5-1.4,0.8-2.1
		s0.4-1.3,0.6-1.9s0.2-1.2,0.2-1.7c0-0.5-0.1-0.9-0.3-1.3S1198.1,548.6,1197.5,548.6z"/>
	<path class="st2" d="M1237.3,564.1c0,1.1-0.4,2-1.2,2.8s-1.8,1.2-2.8,1.2c-0.8,0-1.5-0.3-2.1-0.9s-0.9-1.3-0.9-2.1
		c0-1.1,0.4-2,1.3-2.8s1.8-1.2,2.9-1.2c0.8,0,1.5,0.3,2,0.9S1237.3,563.2,1237.3,564.1z M1245.1,535c0,0.7-0.3,1.6-1,3
		c-0.5,1-1.4,3.4-2.9,7.3s-2.3,6.2-2.6,7.1s-0.6,2-0.8,3.3c-0.2,1-0.9,1.5-2.1,1.5c-1.5,0-2.3-0.8-2.3-2.3c0-1.6,1-4.7,2.9-9.3
		s3.4-7.7,4.4-9.4s2-2.5,3-2.5C1244.6,533.6,1245.1,534.1,1245.1,535z"/>
</g>
</svg>
